<svg width="431" height="474" viewBox="0 0 431 474" fill="none" xmlns="http://www.w3.org/2000/svg">
<g clip-path="url(#clip0_109_389)">
<path opacity="0.4" d="M362.717 167.572C240.584 143.426 119.714 220.053 62.6826 297.294" stroke="#4E5FFF" stroke-width="4" stroke-linecap="round" stroke-linejoin="round" stroke-dasharray="15 15"/>
<path d="M62.6825 297.294C83.626 268.929 113.177 240.647 148.24 217.408" stroke="#4E60FF" stroke-width="4" stroke-linecap="round" stroke-linejoin="round"/>
<path fill-rule="evenodd" clip-rule="evenodd" d="M346.433 192.713C359.726 201.208 377.504 197.138 386.141 183.622C394.778 170.106 391.004 152.263 377.711 143.768C364.417 135.273 346.64 139.344 338.003 152.86C329.366 166.376 333.139 184.218 346.433 192.713Z" fill="#EB5757" fill-opacity="0.1"/>
<g filter="url(#filter0_d_109_389)">
<path fill-rule="evenodd" clip-rule="evenodd" d="M354.775 179.136C360.708 182.928 368.713 181.005 372.653 174.84C376.592 168.674 374.975 160.602 369.042 156.811C363.107 153.018 355.103 154.942 351.163 161.107C347.223 167.272 348.84 175.344 354.775 179.136Z" fill="#EB5757"/>
</g>
<g opacity="0.75" filter="url(#filter1_d_109_389)">
<path fill-rule="evenodd" clip-rule="evenodd" d="M208.079 201.944C218.977 208.909 233.458 205.72 240.423 194.821C247.389 183.921 244.199 169.441 233.3 162.476C222.401 155.511 207.921 158.699 200.955 169.599C193.99 180.499 197.179 194.979 208.079 201.944Z" fill="#373759"/>
</g>
<g clip-path="url(#clip1_109_389)">
<path fill-rule="evenodd" clip-rule="evenodd" d="M216.667 179.42L219.332 178.59L227.307 180.826L218.1 184.524L216.156 183.282L212.269 180.797L216.667 179.42Z" stroke="white" stroke-width="1.5" stroke-linecap="round" stroke-linejoin="round"/>
<path d="M216.156 183.282C214.992 185.113 212.712 185.888 210.672 185.147C208.633 184.405 207.384 182.345 207.668 180.194C207.953 178.043 209.695 176.379 211.856 176.193C214.018 176.007 216.019 177.348 216.667 179.419" stroke="white" stroke-width="1.5" stroke-linecap="round" stroke-linejoin="round"/>
<path d="M223.391 193.38C225.538 194.752 228.391 194.124 229.763 191.977C231.135 189.83 230.507 186.977 228.36 185.605C226.213 184.233 223.36 184.861 221.988 187.008C220.616 189.155 221.244 192.008 223.391 193.38Z" stroke="white" stroke-width="1.5" stroke-linecap="round" stroke-linejoin="round"/>
<path d="M228.55 178.882L231.115 179.152" stroke="white" stroke-width="1.5" stroke-linecap="round" stroke-linejoin="round"/>
<path d="M225.876 189.493L228.55 178.882" stroke="white" stroke-width="1.5" stroke-linecap="round" stroke-linejoin="round"/>
<path d="M219.181 174.264L222.097 176.127" stroke="white" stroke-width="1.5" stroke-linecap="round" stroke-linejoin="round"/>
<path fill-rule="evenodd" clip-rule="evenodd" d="M227.307 180.826L218.1 184.524L212.269 180.797L219.334 178.587L227.307 180.826Z" stroke="white" stroke-width="1.5" stroke-linecap="round" stroke-linejoin="round"/>
<path d="M218.1 184.524L220.153 174.885" stroke="white" stroke-width="1.5" stroke-linecap="round" stroke-linejoin="round"/>
</g>
<path d="M51.0583 318.198C51.3007 318.353 51.584 318.423 51.8315 318.458C52.0918 318.496 52.3846 318.506 52.6946 318.498C53.3152 318.482 54.077 318.393 54.9239 318.253C56.6224 317.972 58.7441 317.477 60.9203 316.896C65.2648 315.735 69.9228 314.208 71.9787 313.309C72.1369 313.239 72.2938 313.17 72.4493 313.102C78.3209 310.534 82.1465 308.86 85.5189 303.583C91.3696 294.427 88.022 281.956 78.2209 275.693C68.4197 269.43 55.6962 271.631 49.8454 280.786C46.3717 286.222 46.4195 290.353 46.5547 297.06C46.6025 299.459 47.2126 304.356 48.023 308.772C48.4293 310.985 48.8899 313.104 49.3633 314.748C49.5998 315.568 49.8447 316.29 50.0958 316.854C50.2205 317.137 50.3549 317.395 50.4994 317.613C50.6365 317.822 50.8188 318.045 51.0583 318.198Z" fill="#4E60FF" stroke="white" stroke-width="2"/>
<g clip-path="url(#clip2_109_389)">
<path fill-rule="evenodd" clip-rule="evenodd" d="M65.3998 282.423L77.1967 289.962C78.1278 290.557 78.4 291.793 77.805 292.724L70.2663 304.521C69.6713 305.452 68.4352 305.724 67.504 305.129L55.7071 297.591C54.776 296.996 54.5038 295.76 55.0988 294.828L62.6375 283.031C63.2325 282.1 64.4686 281.828 65.3998 282.423Z" stroke="white" stroke-width="1.5" stroke-linecap="round" stroke-linejoin="round"/>
<path d="M66.1951 287.678C65.1542 289.307 65.6308 291.471 67.2596 292.512C68.8884 293.553 71.0527 293.077 72.0935 291.448" stroke="white" stroke-width="1.5" stroke-linecap="round" stroke-linejoin="round"/>
</g>
<g opacity="0.15" filter="url(#filter2_f_109_389)">
<ellipse cx="47.3358" cy="323.69" rx="10" ry="1.5" transform="rotate(32.5802 47.3358 323.69)" fill="#373759"/>
</g>
</g>
<defs>
<filter id="filter0_d_109_389" x="345.111" y="152.527" width="33.5928" height="34.0108" filterUnits="userSpaceOnUse" color-interpolation-filters="sRGB">
<feFlood flood-opacity="0" result="BackgroundImageFix"/>
<feColorMatrix in="SourceAlpha" type="matrix" values="0 0 0 0 0 0 0 0 0 0 0 0 0 0 0 0 0 0 127 0" result="hardAlpha"/>
<feOffset dy="1.55914"/>
<feGaussianBlur stdDeviation="1.94893"/>
<feColorMatrix type="matrix" values="0 0 0 0 0.745098 0 0 0 0 0.760784 0 0 0 0 0.807843 0 0 0 1 0"/>
<feBlend mode="normal" in2="BackgroundImageFix" result="effect1_dropShadow_109_389"/>
<feBlend mode="normal" in="SourceGraphic" in2="effect1_dropShadow_109_389" result="shape"/>
</filter>
<filter id="filter1_d_109_389" x="152.267" y="113.788" width="146.845" height="146.845" filterUnits="userSpaceOnUse" color-interpolation-filters="sRGB">
<feFlood flood-opacity="0" result="BackgroundImageFix"/>
<feColorMatrix in="SourceAlpha" type="matrix" values="0 0 0 0 0 0 0 0 0 0 0 0 0 0 0 0 0 0 127 0" result="hardAlpha"/>
<feOffset dx="5" dy="5"/>
<feGaussianBlur stdDeviation="25"/>
<feColorMatrix type="matrix" values="0 0 0 0 0.823529 0 0 0 0 0.835294 0 0 0 0 0.917647 0 0 0 1 0"/>
<feBlend mode="normal" in2="BackgroundImageFix" result="effect1_dropShadow_109_389"/>
<feBlend mode="normal" in="SourceGraphic" in2="effect1_dropShadow_109_389" result="shape"/>
</filter>
<filter id="filter2_f_109_389" x="35.8702" y="315.158" width="22.9312" height="17.0647" filterUnits="userSpaceOnUse" color-interpolation-filters="sRGB">
<feFlood flood-opacity="0" result="BackgroundImageFix"/>
<feBlend mode="normal" in="SourceGraphic" in2="BackgroundImageFix" result="shape"/>
<feGaussianBlur stdDeviation="1.5" result="effect1_foregroundBlur_109_389"/>
</filter>
<clipPath id="clip0_109_389">
<rect width="253.864" height="400" fill="white" transform="translate(216.109 0.159668) rotate(32.5802)"/>
</clipPath>
<clipPath id="clip1_109_389">
<rect width="29.9766" height="29.9766" fill="white" transform="translate(216.377 161.529) rotate(32.5802)"/>
</clipPath>
<clipPath id="clip2_109_389">
<rect width="24" height="24" fill="white" transform="translate(62.802 277.203) rotate(32.5802)"/>
</clipPath>
</defs>
</svg>
